<?xml version="1.0" encoding="utf-8"?>
<!-- Generator: Adobe Illustrator 23.0.1, SVG Export Plug-In . SVG Version: 6.00 Build 0)  -->
<!DOCTYPE svg PUBLIC "-//W3C//DTD SVG 1.1 Basic//EN" "http://www.w3.org/Graphics/SVG/1.1/DTD/svg11-basic.dtd" [
	<!ENTITY ns_extend "http://ns.adobe.com/Extensibility/1.0/">
	<!ENTITY ns_ai "http://ns.adobe.com/AdobeIllustrator/10.0/">
	<!ENTITY ns_graphs "http://ns.adobe.com/Graphs/1.0/">
	<!ENTITY ns_vars "http://ns.adobe.com/Variables/1.0/">
	<!ENTITY ns_imrep "http://ns.adobe.com/ImageReplacement/1.0/">
	<!ENTITY ns_sfw "http://ns.adobe.com/SaveForWeb/1.0/">
	<!ENTITY ns_custom "http://ns.adobe.com/GenericCustomNamespace/1.0/">
	<!ENTITY ns_adobe_xpath "http://ns.adobe.com/XPath/1.0/">
]>
<svg version="1.1" baseProfile="basic" xmlns:x="&ns_extend;" xmlns:i="&ns_ai;" xmlns:graph="&ns_graphs;"
	 xmlns="http://www.w3.org/2000/svg" xmlns:xlink="http://www.w3.org/1999/xlink" x="0px" y="0px" viewBox="0 0 1040 880"
	 xml:space="preserve">
<metadata>
	<sfw  xmlns="&ns_sfw;">
		<slices></slices>
		<sliceSourceBounds  bottomLeftOrigin="true" height="756.6" width="896.9" x="537.7" y="172.5"></sliceSourceBounds>
		<optimizationSettings>
			<targetSettings  fileFormat="JPEGFormat" targetSettingsID="0">
				
					<JPEGFormat  blurAmount="0" embedICCProfile="false" matteColor="#FFFFFF" noMatteColor="false" optimized="true" progressive="false" quality="100">
					</JPEGFormat>
			</targetSettings>
		</optimizationSettings>
	</sfw>
</metadata>
<g id="background">
	<path fill="#EFEFEF" d="M511.8,81.4c-14-2.1-26.6,8.6-26.5,22.7l0,17.3c0,8.5-6.9,15.4-15.4,15.4h0c-8.5,0-15.4-6.9-15.4-15.4V102
		c0-12.1-9.8-21.9-21.9-21.9l-0.7,0c-12.1,0-21.9,9.8-21.9,21.9v55.3c0,9.1-7.3,16.4-16.4,16.4h0c-9.1,0-16.4-7.3-16.4-16.4v-33.8
		c0-13.5-10.9-24.4-24.4-24.4h0c-13.5,0-24.4,10.9-24.4,24.4v267c0,18.2-14.8,33-33,33h0c-18.2,0-33-14.8-33-33V279.6
		c0-9.3-7.5-16.8-16.8-16.8h0c-9.3,0-16.8,7.5-16.8,16.8v50.3c0,10.2-7.9,19-18.2,19.4c-10.7,0.4-19.5-8.1-19.5-18.7v-81.2
		c0-7.4-6-13.3-13.3-13.3h0c-7.4,0-13.3,6-13.3,13.3v157.4c0,6.8-5.5,12.3-12.3,12.3h0c-6.8,0-12.3-5.5-12.3-12.3l0-97
		c0-7.1-5.1-13.3-12.1-14.2c-6.2-0.8-12.1,2.7-14.5,8.3c-18.8,44.5-29.1,93.4-29,144.8c0.4,204.6,165.8,369.7,370.4,369.7
		c204.6,0,370.4-165.9,370.4-370.4C824.9,262.6,689.4,108.7,511.8,81.4z"/>
	<ellipse opacity="0.3" fill="#848484" cx="683.5" cy="680.5" rx="153.1" ry="9.3"/>
	<path fill="#EFEFEF" d="M212.7,81.9v137.4c0,7.3,5.9,13.2,13.2,13.2h0c7.3,0,13.2-5.9,13.2-13.2v-17.6c0-4.7,3.8-8.5,8.5-8.5h0
		c4.7,0,8.5,3.8,8.5,8.5v26.6c0,8.2,6.6,14.8,14.8,14.8h0c8.2,0,14.8-6.6,14.8-14.8v-49.3c0-1.9,1.6-3.5,3.5-3.5l0,0
		c1.9,0,3.5,1.6,3.5,3.5v3.2c0,3.9,3.1,7,7,7l0,0c3.9,0,7-3.1,7-7V92.3c0-9.3-7.5-16.8-16.8-16.8h0c-9.3,0-16.8,7.5-16.8,16.8v4.2
		c0,5.5-4.5,10-10,10l0,0c-5.5,0-10-4.5-10-10V81.9c0-11.1-9-20.2-20.2-20.2h0C221.7,61.7,212.7,70.7,212.7,81.9z"/>
</g>
<g id="objects">
	<ellipse fill="#BCBCBC" cx="130.2" cy="639.9" rx="40.5" ry="16.8"/>
	<ellipse fill="#F0BC68" cx="130.2" cy="650.4" rx="40.5" ry="16.8"/>
	<path fill="#B7B7B7" d="M441.3,773.7h10.3h8.6v-7.5h-4.8c-4.5-4.8-10.8-7.8-17.9-7.8c-10.3,0-19.1,6.4-22.7,15.4H314.4
		c-3.6-9-12.4-15.4-22.7-15.4c-7.1,0-13.5,3-17.9,7.8H269v7.5h12h6.9c5,0,9.1,4.1,9.1,9.1v0c0,5-4.1,9.1-9.1,9.1H278v-7.5h-9v7.5
		c3.6,9,12.4,15.4,22.7,15.4s19.1-6.4,22.7-15.4h100.4c3.6,9,12.4,15.4,22.7,15.4s19.1-6.4,22.7-15.4v-7.5h-10.5v7.5h-8.4
		c-5,0-9.1-4.1-9.1-9.1v0C432.2,777.7,436.3,773.7,441.3,773.7z"/>
	<path fill="#FFFFFF" d="M476.4,733.4c0,0,127.1-0.3,127.1-17.7s-104.4-5.4-107.6-16.3c-2.9-9.8,25.8-7.2,20.4-16
		c-7.4-12.1-196-5-214.7-4.7c-18.7,0.3-35,5-35.3,15.3c-0.3,10.3,15.1,12.8,26.2,13.3c18.6,0.8,77.6-0.3,79.8,5.7
		c3,8.4-18.8,4-17.1,13.9C357.3,738.4,461.4,733.6,476.4,733.4z"/>
	
		<line fill="none" stroke="#848484" stroke-width="7" stroke-linecap="round" stroke-linejoin="round" stroke-miterlimit="10" x1="458.4" y1="438.8" x2="413" y2="694.1"/>
	
		<line fill="none" stroke="#848484" stroke-width="10" stroke-linecap="round" stroke-linejoin="round" stroke-miterlimit="10" x1="243.1" y1="524.5" x2="354.5" y2="524.5"/>
	
		<line fill="none" stroke="#848484" stroke-width="7" stroke-linecap="round" stroke-linejoin="round" stroke-miterlimit="10" x1="258.4" y1="438.8" x2="213" y2="694.1"/>
	<g>
		<rect x="808.5" y="536.9" fill="#EFEFEF" width="159.1" height="121.8"/>
		<rect x="803.2" y="560.6" fill="#FFFFFF" width="115.4" height="76.4"/>
		<polygon opacity="0.3" fill="#BCBCBC" points="831.3,658.8 872.5,546.3 967.7,546.3 967.7,536.9 803.2,536.9 803.2,658.8 		"/>
		<path fill="#B7B7B7" d="M795.4,526.8h179.8c2.8,0,5.1,2.3,5.1,5.1v0c0,2.8-2.3,5.1-5.1,5.1H795.4c-2.8,0-5.1-2.3-5.1-5.1v0
			C790.3,529,792.6,526.8,795.4,526.8z"/>
		<path fill="#FE938C" d="M882.3,526.8v55.9c0,4.4,3.5,7.9,7.9,7.9l0,0c4.4,0,7.9-3.5,7.9-7.9v-32.8c0-3.1,2.5-5.6,5.6-5.6l0,0
			c3.1,0,5.6,2.5,5.6,5.6v13c0,6.3,5.1,11.4,11.4,11.4h0c6.3,0,11.4-5.1,11.4-11.4v-21.5c0-2.5,2-4.4,4.4-4.4l0,0
			c2.5,0,4.4,2,4.4,4.4v3.1c0,3.9,3.1,7,7,7l0,0c3.9,0,7-3.1,7-7v-17.7H882.3z"/>
		<path fill="none" stroke="#848484" stroke-width="1.25" stroke-miterlimit="10" d="M790.3,531.9c0,52.5,42.5,95,95,95
			s95-42.5,95-95"/>
	</g>
	<g>
		<path fill="#FFD092" d="M550.8,678.8h240.9c13.3,0,24-10.7,24-24V459.7c0-13.3-10.7-24-24-24H550.8c-13.3,0-24,10.7-24,24v195.1
			C526.8,668,537.5,678.8,550.8,678.8z"/>
		<path fill="#F0BC68" d="M766.2,654.8L766.2,654.8c5.6,0,10.1-4.5,10.1-10.1V473.8c0-5.6-4.5-10.1-10.1-10.1l0,0
			c-5.6,0-10.1,4.5-10.1,10.1v170.8C756.1,650.2,760.6,654.8,766.2,654.8z"/>
		<path fill="#F0BC68" d="M576.2,655.1L576.2,655.1c5.6,0,10.1-4.5,10.1-10.1V474.1c0-5.6-4.5-10.1-10.1-10.1l0,0
			c-5.6,0-10.1,4.5-10.1,10.1v170.8C566.1,650.5,570.6,655.1,576.2,655.1z"/>
		<path fill="#F0BC68" d="M639.6,655.1L639.6,655.1c5.6,0,10.1-4.5,10.1-10.1V474.1c0-5.6-4.5-10.1-10.1-10.1l0,0
			c-5.6,0-10.1,4.5-10.1,10.1v170.8C629.4,650.5,634,655.1,639.6,655.1z"/>
		<path fill="#F0BC68" d="M702.9,655.1L702.9,655.1c5.6,0,10.1-4.5,10.1-10.1V474.1c0-5.6-4.5-10.1-10.1-10.1l0,0
			c-5.6,0-10.1,4.5-10.1,10.1v170.8C692.8,650.5,697.3,655.1,702.9,655.1z"/>
	</g>
	
		<line fill="none" stroke="#848484" stroke-width="7" stroke-linecap="round" stroke-linejoin="round" stroke-miterlimit="10" x1="243.1" y1="524.5" x2="289.8" y2="608.5"/>
	
		<line fill="none" stroke="#848484" stroke-width="10" stroke-linecap="round" stroke-linejoin="round" stroke-miterlimit="10" x1="289.8" y1="608.5" x2="403.9" y2="608.5"/>
	<path fill="none" stroke="#B7B7B7" stroke-width="9" stroke-linecap="round" stroke-linejoin="round" stroke-miterlimit="10" d="
		M611.2,694.1L431.6,394c-4.1-6.8-11.4-11-19.4-11H264.8c-17.5,0-28.4,19.1-19.4,34.2l165.7,276.9"/>
	
		<line fill="none" stroke="#FFFFFF" stroke-width="10" stroke-linecap="round" stroke-linejoin="round" stroke-miterlimit="10" x1="403.9" y1="608.5" x2="603.9" y2="608.5"/>
	
		<line fill="none" stroke="#FFFFFF" stroke-width="10" stroke-linecap="round" stroke-linejoin="round" stroke-miterlimit="10" x1="354.5" y1="524.5" x2="554.5" y2="524.5"/>
	<path fill="#FFFFFF" d="M636.7,745.2c18.9,0.1,70.8-0.9,72.6,21.1s-60.2,21.8-72.6,21.8s-27-1.3-27.2-10.2
		c-0.2-8.9,19.3-2.7,19.3-8.4s-53.8,0.4-53.8-12.7C575.1,743.7,621.1,745.1,636.7,745.2z"/>
	<rect x="305.7" y="766.1" fill="#D6D6D6" width="121.1" height="18.2"/>
	<path fill="#BCBCBC" d="M407.2,778.7h-82.1c-1.9,0-3.5-1.6-3.5-3.5l0,0c0-1.9,1.6-3.5,3.5-3.5h82.1c1.9,0,3.5,1.6,3.5,3.5l0,0
		C410.7,777.2,409.2,778.7,407.2,778.7z"/>
	<path fill="#E0E0E0" d="M441.3,784.3c-5,0-9.1-4.1-9.1-9.1v0c0-5,4.1-9.1,9.1-9.1h18.9c-3.6-9-12.4-15.4-22.7-15.4
		c-13.5,0-24.5,11-24.5,24.5c0,13.5,11,24.5,24.5,24.5c10.3,0,19.1-6.4,22.7-15.4H441.3z"/>
	<path fill="#E0E0E0" d="M287.8,784.3c5,0,9.1-4.1,9.1-9.1v0c0-5-4.1-9.1-9.1-9.1H269c3.6-9,12.4-15.4,22.7-15.4
		c13.5,0,24.5,11,24.5,24.5c0,13.5-11,24.5-24.5,24.5c-10.3,0-19.1-6.4-22.7-15.4H287.8z"/>
	<path fill="#D6D6D6" d="M130.2,656.7c-22.4,0-40.5-7.5-40.5-16.8v82.4c0,9.3,18.1,16.8,40.5,16.8s40.5-7.5,40.5-16.8v-82.4
		C170.7,649.2,152.5,656.7,130.2,656.7z"/>
	<path fill="#FFD671" d="M130.2,656.7c-12.8,0-24.2-2.5-31.6-6.3l0,0V672c0,2.4,2,4.4,4.4,4.4h0c2.4,0,4.4-2,4.4-4.4l0,0
		c0-2.3,1.8-4.1,4.1-4.1h0c2.3,0,4.1,1.8,4.1,4.1v19.2c0,4.7,3.8,8.6,8.6,8.6h0c4.7,0,8.6-3.8,8.6-8.6v-34.5l0,0
		C131.8,656.7,131,656.7,130.2,656.7z"/>
	<path fill="#FFD671" d="M148.4,654.9L148.4,654.9l0,26.9c0,3.6,2.9,6.5,6.5,6.5h0c3.6,0,6.5-2.9,6.5-6.5v-31.2l0,0
		C157.8,652.4,153.4,653.9,148.4,654.9z"/>
	<g>
		<ellipse fill="#969696" cx="214.3" cy="603.7" rx="57.3" ry="26.3"/>
		<ellipse fill="#FFB0AE" cx="214.3" cy="620.1" rx="57.3" ry="26.3"/>
		<path fill="#BCBCBC" d="M214.3,629.9c-31.7,0-57.3-11.8-57.3-26.3v128.8c0,14.5,25.7,26.3,57.3,26.3s57.3-11.8,57.3-26.3V603.7
			C271.7,618.2,246,629.9,214.3,629.9z"/>
		<path fill="#FFFFFF" d="M214.3,676.4c-11.4,0-22-1.5-30.9-4.1v14v44.2c8.9,2.6,19.5,4.1,30.9,4.1c31.7,0,57.3-11.8,57.3-26.3
			v-58.2C271.7,664.6,246,676.4,214.3,676.4z"/>
		<path fill="#FE938C" d="M173.3,633.2L173.3,633.2c2.6,0,4.8,2.1,4.8,4.8v3c0,2.9,2.4,5.3,5.3,5.3h0c2.9,0,5.3-2.4,5.3-5.3v-13.9
			l0,0c-18.8-4.3-31.7-13.2-31.7-23.5v49.1h0c6.4,0,11.6-5.2,11.6-11.6V638C168.5,635.4,170.7,633.2,173.3,633.2z"/>
		<path fill="#FE938C" d="M214.3,629.9c-0.4,0-0.9,0-1.3,0l0,0v64c0,5.8,4.7,10.4,10.4,10.4h0c5.8,0,10.4-4.7,10.4-10.4v-40.2
			c0-3.1,2.5-5.6,5.6-5.6h0c3.1,0,5.6,2.5,5.6,5.6V685c0,4.1,3.3,7.3,7.3,7.3h0c4.1,0,7.3-3.3,7.3-7.3v-35.6c0-6.6,5.4-12,12-12h0
			v-33.8C271.7,618.2,246,629.9,214.3,629.9z"/>
	</g>
	<path fill="#EFEFEF" d="M673.4,746.7c-19.1,14-39.6,26.3-61.3,36.5c4.8,4.2,15.4,4.9,24.6,4.9c12.3,0,74.3,0.2,72.6-21.8
		C708.3,753.9,691.4,748.8,673.4,746.7z"/>
</g>
<g id="body">
	<path fill="#B57E68" d="M670.6,429c0,0,10.7,11.8,13.7,35.8s3,38.3,5.3,48c2.3,9.7,16.7,50.3,17.3,67.7c0.6,16-4.2,69.4-15.2,95.7
		c-1.5,3.6-5.1,6-9,6l-43.9,0c-1.4,0-2.5-1.2-2.4-2.6c0.5-4.6,2.6-13.9,11.9-17c0,0-7.5-35.7-15.7-49c-8.2-13.3-48.7-49.7-49.7-73.3
		c-1-23.7,2.1-57.3,19.1-79.7"/>
	
		<path fill="none" stroke="#F0BC68" stroke-width="1.25" stroke-linecap="round" stroke-linejoin="round" stroke-miterlimit="10" d="
		M648.3,662.4c0,0,11.2-4,21.4,6"/>
	<path opacity="0.3" fill="#826855" d="M689.6,512.8c-2.3-9.7-2.3-24-5.3-48S670.6,429,670.6,429l-68.7,31.4
		c-17,22.3-20.1,56-19.1,79.7c0.4,8.3,5.6,18.2,12.6,28.1c18,0.2,75,4.4,108,58.2c2.7-19.4,3.8-37.7,3.5-45.9
		C706.3,563.1,691.9,522.4,689.6,512.8z"/>
	
		<path fill="none" stroke="#F0BC68" stroke-width="1.25" stroke-linecap="round" stroke-linejoin="round" stroke-miterlimit="10" d="
		M658.9,611.1c-8.1,7.6-21,7.4-28.6-0.8"/>
	
		<path fill="none" stroke="#F0BC68" stroke-width="1.25" stroke-linecap="round" stroke-linejoin="round" stroke-miterlimit="10" d="
		M642.2,682.1c0,0,0.5-8.6,4.5-13.5"/>
	
		<path fill="none" stroke="#F0BC68" stroke-width="1.25" stroke-linecap="round" stroke-linejoin="round" stroke-miterlimit="10" d="
		M649.8,682.1c0,0,0.5-8.6,4.5-13.5"/>
	<path fill="#B57E68" d="M472.4,445.3c-15,5.1-25.8,19.3-25.8,36c0,1.7,0.1,3.4,0.3,5l0,0c0,0,0,0,0,0.1c0.1,0.9,0.2,1.7,0.4,2.6
		c1.9,11.7,17.1,59.9,17.5,80.5c0,0-6.6,4-3.6,14.3c0,0-10,3.5-11.4,16.8c-0.2,1.7,1.2,3.2,2.9,3.2H496c4.5,0,8.7-2.6,10.7-6.6
		c6.7-13.3,17.9-46.4,22.7-108.1c0.1-1.9,0.4-5.1,0.4-7.7c0-9.8-3.3-18.7-9.4-25.4"/>
	
		<path fill="none" stroke="#EFEFEF" stroke-width="1.25" stroke-linecap="round" stroke-linejoin="round" stroke-miterlimit="10" d="
		M461.3,583.7c0,0,16.5-7.5,28.3,8.2"/>
	
		<path fill="none" stroke="#EFEFEF" stroke-width="1.25" stroke-linecap="round" stroke-linejoin="round" stroke-miterlimit="10" d="
		M464.9,569.4c0,0,10-6.3,22.9,0.2"/>
	
		<path fill="none" stroke="#EFEFEF" stroke-width="1.25" stroke-linecap="round" stroke-linejoin="round" stroke-miterlimit="10" d="
		M457,603.7c0,0-0.9-8.3,4.9-13.6"/>
	
		<path fill="none" stroke="#EFEFEF" stroke-width="1.25" stroke-linecap="round" stroke-linejoin="round" stroke-miterlimit="10" d="
		M464.9,603.7c0,0-0.9-8.3,4.9-13.6"/>
	<path fill="#D89F75" d="M728,415.4c-57.1-51.2-123.8-53-148.1-73.8c-1.2-10.8-6-19.8-15.9-30.6c-14.7-15.9-33-15.6-33-15.6
		l-3.9,50.3C480.5,370.5,418,420.2,418,420.2s-1.5,10.7,7.4,17.6c0,0,8.6,62.9,87.1,92.6c78.5,29.7,108.5,13,143.5,31.7
		c31.9,17,116.6-72.7,84.8-130.7C737.7,425.8,733.5,420.4,728,415.4z"/>
	<path fill="#D89F75" d="M739.1,428.5c0,0,11.5,12.2,14.5,36.2s3,38.3,5.3,48c2.3,9.7,16.7,50.3,17.3,67.7
		c0.6,16-4.2,69.4-15.2,95.7c-1.5,3.6-5.1,6-9,6l-43.9,0c-1.4,0-2.5-1.2-2.4-2.6c0.5-4.6,2.6-13.9,11.9-17c0,0-7.5-35.7-15.7-49
		c-8.2-13.3-54.7-46.3-55.7-70c-1-23.7,8-60.7,25-83"/>
	
		<path fill="none" stroke="#B57E68" stroke-width="1.25" stroke-linecap="round" stroke-linejoin="round" stroke-miterlimit="10" d="
		M717.7,662.4c0,0,11.2-4,21.4,6"/>
	
		<path fill="none" stroke="#B57E68" stroke-width="1.25" stroke-linecap="round" stroke-linejoin="round" stroke-miterlimit="10" d="
		M728.3,611.1c-8.1,7.6-21,7.4-28.6-0.8"/>
	<path fill="#D89F75" d="M508.5,445.3c-15,5.1-25.8,19.3-25.8,36c0,1.7,0.6,6.8,0.8,7.7c1.9,11.7,9.6,59.9,10,80.5
		c0,0-6.6,4-3.6,14.3c0,0-10,3.5-11.4,16.8c-0.2,1.7,1.2,3.2,2.9,3.2h43.2c4.5,0,8.7-2.6,10.7-6.6c6.7-13.3,17.9-46.4,22.7-108.1
		c0.1-1.9,0.4-5.1,0.4-7.7c0-9.8-3.3-18.7-9.4-25.4"/>
	
		<path fill="none" stroke="#B57E68" stroke-width="1.25" stroke-linecap="round" stroke-linejoin="round" stroke-miterlimit="10" d="
		M489.8,583.7c0,0,16.5-7.5,28.3,8.2"/>
	
		<path fill="none" stroke="#B57E68" stroke-width="1.25" stroke-linecap="round" stroke-linejoin="round" stroke-miterlimit="10" d="
		M493.4,569.4c0,0,10-6.3,22.9,0.2"/>
	
		<path fill="none" stroke="#B57E68" stroke-width="1.25" stroke-linecap="round" stroke-linejoin="round" stroke-miterlimit="10" d="
		M712.5,682.1c0,0,0.5-8.6,4.5-13.5"/>
	
		<path fill="none" stroke="#B57E68" stroke-width="1.25" stroke-linecap="round" stroke-linejoin="round" stroke-miterlimit="10" d="
		M720.1,682.1c0,0,0.5-8.6,4.5-13.5"/>
	
		<path fill="none" stroke="#B57E68" stroke-width="1.25" stroke-linecap="round" stroke-linejoin="round" stroke-miterlimit="10" d="
		M485.7,603.7c0,0-0.9-8.3,4.9-13.6"/>
	
		<path fill="none" stroke="#B57E68" stroke-width="1.25" stroke-linecap="round" stroke-linejoin="round" stroke-miterlimit="10" d="
		M493.5,603.7c0,0-0.9-8.3,4.9-13.6"/>
	
		<path fill="none" stroke="#B57E68" stroke-width="1.25" stroke-linecap="round" stroke-linejoin="round" stroke-miterlimit="10" d="
		M595.8,351c0,0,32.2,19.5,3.5,125.5"/>
	
		<path fill="none" stroke="#B57E68" stroke-width="1.25" stroke-linecap="round" stroke-linejoin="round" stroke-miterlimit="10" d="
		M626.7,453.1c0,0,9.9-62.4,30.9-80"/>
	<ellipse fill="#B57E68" cx="445.5" cy="361.7" rx="58.5" ry="66.3"/>
	
		<path fill="none" stroke="#B57E68" stroke-width="1.25" stroke-linecap="round" stroke-linejoin="round" stroke-miterlimit="10" d="
		M579.3,358.6c-3.3,23.3-31.2,58.8-58.7,69.4"/>
	
		<path fill="none" stroke="#B57E68" stroke-width="1.25" stroke-linecap="round" stroke-linejoin="round" stroke-miterlimit="10" d="
		M550.5,546.3c3-15.5,5.6-34.4,7.4-57.3c0.1-1.9,0.4-5.1,0.4-7.7c0-9.8-3.3-18.7-9.4-25.4"/>
	
		<path fill="none" stroke="#B57E68" stroke-width="1.25" stroke-linecap="round" stroke-linejoin="round" stroke-miterlimit="10" d="
		M508.5,445.3c-15,5.1-25.8,19.3-25.8,36c0,1.7,0.6,6.8,0.8,7.7c0.9,5.7,3.2,20,5.4,35.5"/>
	
		<path fill="none" stroke="#B57E68" stroke-width="1.25" stroke-linecap="round" stroke-linejoin="round" stroke-miterlimit="10" d="
		M702,613.4c-8.2-13.3-54.7-46.3-55.7-70c-1-23.7,8-60.7,25-83"/>
	<path opacity="0.3" fill="#826855" d="M502.1,344.8c-1.5,1.7-3.7,2.9-6.8,2.9c-4.6,0.1-7.4-3.5-8.9-6.7c0.3-6.5,0.5-9.2,0.5-9.2
		h-93.2c0,0,2.4,18.7,3,25.1c-1.2-5.1-2-10.5-2.2-16c-1.5,0-3.1,0.1-4.6,0.3c-1.9,6.5-2.9,13.4-2.9,20.5c0,9.8,1.9,19.1,5.3,27.5
		c2.4,0.6,5.1,0.4,7.4-1c4.8-2.7,6.5-8.8,3.8-13.6c-0.8-1.4-1.5-2.8-2.2-4.3c6.9,10.8,20.8,17.9,37.4,17.9
		c14.1,0,28.6-5.1,37.8-13.5c-2.6,4.7-1.1,10.6,3.5,13.4c1.6,1,3.4,1.5,5.2,1.5c3.4,0,6.7-1.7,8.6-4.8c5-8.2,8.4-17.4,10.2-27.2
		C503.6,353.2,503,348.9,502.1,344.8z"/>
	<path opacity="0.2" fill="#826855" d="M551.2,542.6c6.9,1.7,13.3,3,19.4,4.1c-2.9-29-12.4-68.6-12.4-68.6l0,0
		c0.1,1,0.1,2.1,0.1,3.2c0,2.6-0.2,5.8-0.4,7.7C556.2,510.1,553.9,527.8,551.2,542.6z"/>
	<path opacity="0.2" fill="#826855" d="M622.1,552.4c10.9,1.3,20.7,3.4,30.9,8.2c-3.9-6-6.5-11.8-6.7-17.2
		c-0.9-21.4,6.4-53.7,20.3-76.2l0,0C666.7,467.2,631.5,495.5,622.1,552.4z"/>
	<path fill="#C4876C" d="M725,355.9c-11.6-14.5-28.6-19.9-44-19c-14.4,0.8-27.4,7.2-33.2,16.5c-11.8,19.3-2.8,40.2,0.9,45.3
		c3.8,5.1,9.5,7.7,16.8,4.9s5.3-9.9,5-11.3c-0.3-1.3-4.8-18.3,10.5-18.5c15.3-0.2,14.2,17.5,14.2,17.5c11,6.6,22.1,14.4,32.8,24.1
		c4.6,4.2,8.4,8.6,11.3,13.3l0.3,0.2C739.5,429,749.7,386.8,725,355.9z"/>
</g>
<g id="head">
	<path fill="#C19374" d="M453.9,198.3c-47.1,0-85.3,38.2-85.3,85.3c0,45.3,35.2,82.3,79.8,85.1l-17-107.9
		C431.4,260.9,430.4,216.8,453.9,198.3z"/>
	<path fill="#D19E7C" d="M539.2,283.6c0-47.1-38.2-85.3-85.3-85.3c-23.4,18.5-22.5,62.6-22.5,62.6S452,353,453.9,353
		C501,353,539.2,330.8,539.2,283.6z"/>
	<path fill="#7F6E67" d="M477.4,343.2c-0.4,19.4-24.4,32.7-47.2,32.7s-40.5-13.4-42-31.3c-0.6-6.4-3-25.1-3-25.1h93.2
		C478.3,319.5,477.8,326,477.4,343.2z"/>
	<g>
		<path fill="#EDC19D" d="M521,341c-5.1,0-9.4-3.9-9.9-9c-1.7-17.1-9.9-64.8-27.9-79.4c-3.6-2.9-7.2-4.1-11.3-3.7
			c-3.1,0.3-10.4,1.2-10.4,24.5c0,5.5-4.5,10-10,10s-10-4.5-10-10c0-11,1.3-19.3,4.2-26.1c4.6-10.7,12.8-17,24-18.3
			c9.3-1,18.4,1.7,26.1,8c27.6,22.4,34.5,85.8,35.2,93c0.5,5.5-3.5,10.4-9,10.9C521.6,341,521.3,341,521,341z"/>
	</g>
	<path fill="#B57E68" d="M360.7,255.4l6.6,19.8c1.7,5.1,9,4.9,10.4-0.3l13.5-48.5c1.6-3.8-3.4-6.9-6.1-3.8l-21.9,21.6
		C360.3,247.2,359.3,251.5,360.7,255.4z"/>
	<path opacity="0.3" fill="#826855" d="M539.2,283.6c0-47.1-38.2-85.3-85.3-85.3c-23.9,0-45.5,9.9-61,25.7
		c-2.3,4.3-4.3,8.8-5.9,13.5c14.3-7.9,31.8-12.5,50.7-12.5c23.3,0,47.5,7.2,66.1,19.7l-5.5,33.9c-1.8,6.7,3.9,12.9,10.7,11.6l26.1-5
		c1.2,4.5,1.8,9.2,1.8,14c0,1.7-0.2,3.5-0.4,5.1C538.2,298,539.2,291.1,539.2,283.6z"/>
	<g>
		<path fill="#E5B593" d="M376.6,341c-0.1,0-0.3,0-0.4,0c-5.5-0.2-9.8-4.9-9.6-10.4c0-0.9,1-23.3,4.9-46.3c6-36.2,15.9-53.5,31-54.4
			c4.9-0.3,9.6,1.4,13.4,5c11.3,10.4,6.6,33.8,6.7,38.4c0.1,5.5-4.3,10.1-9.8,10.2c-5.5,0.1-10.1-4.3-10.2-9.8
			c-0.2-7.9,3.1-14.9,1.8-19.1c-0.5-1.8-3-2-3.9-0.3c-2.7,5-6.6,15.3-9.9,36.5c-3.2,20.6-4.1,40.5-4.1,40.7
			C386.3,336.8,381.9,341,376.6,341z"/>
	</g>
	<circle fill="#353535" cx="478.3" cy="270.4" r="5.8"/>
	<circle fill="#353535" cx="400.4" cy="267.4" r="5.8"/>
	
		<path fill="none" stroke="#B57E68" stroke-width="1.25" stroke-linecap="round" stroke-linejoin="round" stroke-miterlimit="10" d="
		M453.9,198.3c-23.4,18.5-22.5,62.6-22.5,62.6"/>
	<g>
		<path fill="#F0BC68" d="M441.4,215.6c47.1,0,97.7,30.5,97.4,74.2c0,1.9-0.3,4.7-0.6,6.6c7.5-12.3,12.1-27.7,12.1-43.1
			c0-44.9-36.4-81.4-81.4-81.4c-36.2,0-66.8,23.6-77.4,56.3C405.6,220.3,422.8,215.6,441.4,215.6z"/>
		<path fill="#E0A34C" d="M446.7,215.7c0,0,13-35.8,39.6-42c0,0-27.6-0.1-43,36L446.7,215.7z"/>
		<path fill="#FFD671" d="M468.9,171.9c-6.2,0-12.3,0.7-18.2,2.1c-9.4,2.8-24.6,10.9-34.7,34.4l3.5,6.1c0,0,0.8-2.3,2.5-5.8
			l21.2,1.1c0,0,0.5-4.6,15.9-20.2c14.8-15.1,26.2-15.7,27.1-15.7C480.6,172.5,474.8,171.9,468.9,171.9z"/>
		<path fill="#FFD671" d="M496,216.1c-4.2-7.1-9.1-12.1-19.5-16.7c-10.7-4.8-24.5-7.1-36.1-7.1c-20.6,0-39.4,5.6-54.1,15
			c-1.1,0.7-1.9,1.6-2.5,2.6l0,0l0,0c-0.3,0.5-0.5,1.1-0.7,1.7l-1.6,4.1l10.1,12.4l3.4-2.6l29.1-10.7c0,0,33.7-0.4,34-0.5
			c0.3,0,25.8,6.8,31.1,9.1c5.3,2.3,12.9,8.9,12.9,8.9l4.2,2.7C506.2,235.1,496,216.1,496,216.1z"/>
		<path fill="#E0A34C" d="M502,232.4l-7.5-12.7c-4.2-7.1-9.1-12.1-19.5-16.7c-10.7-4.8-24.5-7.1-36.1-7.1c-20.6,0-39.4,5.6-54.1,15
			c-4.5,2.8-4.5,9.3-0.2,12.4l7,4.9c14-7.9,31.3-12.5,49.9-12.5C462.5,215.6,484.4,221.8,502,232.4C502,232.4,502,232.4,502,232.4z"
			/>
		<path opacity="0.2" fill="#826855" d="M550.3,253.2c0-22.8-9.4-43.4-24.5-58.2c3,8.5,4.7,17.6,4.7,27.2c0,10.3-2,20.5-5.6,29.8
			c8.8,10.8,14,23.6,14,37.7c0,1.9-0.3,4.7-0.6,6.6C545.7,284.1,550.3,268.7,550.3,253.2z"/>
	</g>
	<path opacity="0.3" fill="#826855" d="M541.9,275.3c0,0,2.3,7,1.4,11.4c0,0-2.4,5.8-5,9.7c0,0,1.4-7.1-0.2-16.4L541.9,275.3z"/>
	<path fill="#D89F75" d="M518.9,238.4c-2.8-4-9.1-2.5-9.9,2.3l-5.6,34.4c-1.6,5.7,3.4,11.1,9.3,10l23.4-4.5
		c4.7-0.9,7.4-5.9,5.5-10.3L518.9,238.4z"/>
	<path opacity="0.3" fill="#826855" d="M479.4,318.7c-3.8-15.6-16-45.3-55.1-45.3c-35.2,2-45.7,30.9-48.8,45.8
		c-0.8,2.8-1.2,5.7-1.2,8.8c0,15.6,11.2,28.3,25,28.3s24.8-4.5,24.8-20.2c0,15.6,12.9,20.2,28.5,20.2s28.3-12.7,28.3-28.3
		C481,324.8,480.4,321.6,479.4,318.7z"/>
	<g>
		<path fill="#D89F75" d="M476.7,377.3c-1.8,0-3.6-0.5-5.2-1.5c-4.7-2.9-6.2-9-3.4-13.7c5.6-9.3,8.6-20.4,8.6-32.2
			c0-31.2-20.3-54.8-47.1-54.8c-26.5,0-43.7,19.9-43.7,50.8c0,13.2,3.2,26.2,9.1,36.5c2.7,4.8,1,10.9-3.8,13.6
			c-4.8,2.7-10.9,1-13.6-3.8c-7.5-13.3-11.6-29.7-11.6-46.4c0-20.2,10.6-30.2,21.6-43c11.6-13.4,23.1-25.3,42.1-25.3
			c18.7,0,35.9,5.4,48.5,19.9c12,13.9,18.7,32.5,18.7,52.4c0,15.4-4,30.2-11.5,42.6C483.3,375.6,480,377.3,476.7,377.3z"/>
	</g>
	<path opacity="0.3" fill="#9E8B82" d="M468.1,362.1c-2.9,4.7-1.4,10.9,3.4,13.7c1.6,1,3.4,1.5,5.2,1.5c3.4,0,6.7-1.7,8.6-4.8
		c7.6-12.4,11.5-27.2,11.5-42.6c0-1.9-0.1-3.8-0.2-5.6c0,3.8-2,11.1-9.8,11.2c-6.4,0.1-9.2-6.8-10.2-9.9c0.1,1.4,0.1,2.9,0.1,4.4
		C476.8,341.7,473.8,352.8,468.1,362.1z"/>
	<path opacity="0.3" fill="#9E8B82" d="M376.4,298.8c-13,17.4-9.5,40.1-9.5,40.2c1.6,12,5.3,23.5,10.8,33.3
		c2.7,4.8,8.8,6.5,13.6,3.8c4.8-2.7,6.5-8.8,3.8-13.6c-5.4-9.6-8.6-21.5-9-33.7C380.6,328.8,378,296.6,376.4,298.8z"/>
	<g>
		<path fill="#EFEFEF" d="M511.4,399.4L511.4,399.4c-11-1.2-18.9-11.1-17.7-22l5.8-53.7c1.2-11,11.1-18.9,22-17.7l0,0L511.4,399.4z"
			/>
		<path fill="#FFFFFF" d="M579.5,414.2c-0.3,3.1-3.9,4.5-6.3,2.5c-5.4-4.6-14.1-11.4-23.5-15.8c-13.3-6.2-37.5-8.7-37.5-8.7
			l8.5-79.1c0,0,26.6,2.3,40.4,8.4c14.1,6.2,21.5,14.5,24.5,18.6c1.1,1.4,1.5,3.2,1.3,5L579.5,414.2z"/>
		<path fill="#F7CE94" d="M477.9,341.8c-16.8-1.8-59.7-15-76.5-16.8c-10.4-1.1-38.7-1.7-42.7,7.2c-0.7,1.5-0.8,3-0.5,4.6
			c2,9.5,29.8,15.1,40.2,16.2c16.8,1.8,61.6-1.9,78.3-0.1c7.4,0.8,18.5,10.6,18.5,10.6l3-28C498.2,335.5,485.3,342.6,477.9,341.8z
			 M382.3,342.5c-3.1-0.3-5.3-3-5-5.9s3.1-5.1,6.2-4.7c3.1,0.3,5.3,3,5,5.9C388.1,340.7,385.3,342.9,382.3,342.5z"/>
		<path fill="none" stroke="#EFEFEF" stroke-width="1.25" stroke-miterlimit="10" d="M513.6,379.7c0,0,19.8,2,33.6,6.7"/>
		<path fill="none" stroke="#EFEFEF" stroke-width="1.25" stroke-miterlimit="10" d="M514.8,368.5c0,0,26.2,2.6,40,9.5"/>
		<path fill="none" stroke="#EFEFEF" stroke-width="1.25" stroke-miterlimit="10" d="M518.3,335.5c0,0,21.4,0.3,38.2,7"/>
		<path fill="#FE938C" stroke="#FE938C" stroke-width="1.25" stroke-miterlimit="10" d="M561.1,321.5c-4.5-2-10.4-3.6-16.3-4.8
			c0,0-5,1.7-3,9.3c2,7.7,16.3,11.3,15.2,20.3c-1.2,9-16.7,3-17.2,14.3s15.8,10.7,15.2,19.5c-0.7,8.8-16.4,2.7-17.7,16.4l0,0
			c4.5,1.2,8.8,2.5,12.4,4.2c9.4,4.4,18.1,11.2,23.5,15.8c2.3,2,6,0.6,6.3-2.5l7.5-69.1c0.2-1.8-0.3-3.6-1.3-5
			C582.6,336.1,575.2,327.7,561.1,321.5z"/>
		<path fill="#E2E2E2" d="M529,314.1c-4.9-0.7-8.3-0.9-8.3-0.9l-8.5,79.1c0,0,3.9,0.4,9.4,1.3C524.2,358.8,527.6,327.1,529,314.1z"
			/>
		
			<path fill="none" stroke="#E2E2E2" stroke-width="1.25" stroke-linecap="round" stroke-linejoin="round" stroke-miterlimit="10" d="
			M556.5,342.6c0,0,19.7,7,28.9,16.9"/>
		
			<path fill="none" stroke="#E2E2E2" stroke-width="1.25" stroke-linecap="round" stroke-linejoin="round" stroke-miterlimit="10" d="
			M554.8,378c0,0,18.1,7.8,26.9,16"/>
		
			<path fill="none" stroke="#E2E2E2" stroke-width="1.25" stroke-linecap="round" stroke-linejoin="round" stroke-miterlimit="10" d="
			M547.2,386.4c0,0,17.8,4.9,33.1,19.8"/>
	</g>
	<path opacity="0.3" fill="#826855" d="M480.9,320.5c-3.8-15.6-16-45.3-55.1-45.3c-35.2,2-45.7,30.9-48.8,45.8
		c-0.8,2.8-1.2,5.7-1.2,8.8c0,15.6,11.2,28.3,25,28.3s24.8-9.6,24.8-19.2c0,9.6,12.9,19.2,28.5,19.2s28.3-12.7,28.3-28.3
		C482.5,326.6,481.9,323.5,480.9,320.5z"/>
	<path fill="#9B7F78" d="M476.7,310.2c-3.8-15.6-16-45.3-55.1-45.3c-35.2,2-45.7,30.9-48.8,45.8c-0.8,2.8-1.2,5.7-1.2,8.8
		c0,15.6,11.2,28.3,25,28.3s24.8-12.7,24.8-28.3c0,15.6,12.9,28.3,28.5,28.3s28.3-12.7,28.3-28.3
		C478.3,316.3,477.8,313.1,476.7,310.2z"/>
	<line fill="none" stroke="#968174" stroke-width="1.25" stroke-miterlimit="10" x1="421.7" y1="327.2" x2="421.3" y2="308"/>
	<path fill="#4C4C4C" d="M440.9,288.4c0,10.8-10.8,19.6-19.6,19.6c-8.3,0-19.6-8.8-19.6-19.6s9.1-14.5,19.9-14.5
		S440.9,277.6,440.9,288.4z"/>
	
		<path fill="none" stroke="#353535" stroke-width="1.25" stroke-linecap="round" stroke-linejoin="round" stroke-miterlimit="10" d="
		M424.9,289.7c0,4.4,3.6,8,8,8c4.4,0,7.4-3.6,7.4-8"/>
	
		<path fill="none" stroke="#353535" stroke-width="1.25" stroke-linecap="round" stroke-linejoin="round" stroke-miterlimit="10" d="
		M402.4,289.7c0,4.4,3,8,7.4,8c4.4,0,8-3.6,8-8"/>
	<path opacity="0.3" fill="#826855" d="M401.8,269.7c-19.6,9.3-26.5,29.4-28.9,41c-0.8,2.8-1.2,5.7-1.2,8.8c0,12,6.6,22.2,15.9,26.4
		C366.1,302.9,401.5,269.9,401.8,269.7z"/>
</g>
</svg>
